<?xml version="1.0" standalone="no"?>
<!DOCTYPE svg PUBLIC "-//W3C//DTD SVG 20010904//EN"
 "http://www.w3.org/TR/2001/REC-SVG-20010904/DTD/svg10.dtd">
<svg version="1.0" xmlns="http://www.w3.org/2000/svg"
 width="1024.000000pt" height="1024.000000pt" viewBox="0 0 1024.000000 1024.000000"
 preserveAspectRatio="xMidYMid meet">
<metadata>
Created by potrace 1.14, written by Peter Selinger 2001-2017
</metadata>
<g transform="translate(0.000000,1024.000000) scale(0.100000,-0.100000)"
fill="#000000" stroke="none">
<path d="M0 5120 l0 -5120 5120 0 5120 0 0 5120 0 5120 -5120 0 -5120 0 0
-5120z m5900 1981 c25 -6 102 -11 171 -11 97 0 129 -3 138 -14 10 -12 -14
-110 -113 -478 -112 -411 -455 -1854 -497 -2088 -21 -114 -18 -408 4 -490 41
-154 142 -303 267 -395 196 -144 545 -237 880 -236 179 0 289 19 413 71 280
116 482 374 621 791 29 87 128 500 285 1184 133 578 246 1061 252 1074 9 21
14 23 57 17 26 -4 106 -21 177 -39 121 -30 130 -34 133 -57 4 -38 -823 -3610
-840 -3626 -12 -13 -34 -10 -162 20 -81 18 -149 36 -152 39 -5 5 26 328 43
447 l6 45 -40 -36 c-139 -125 -357 -226 -573 -265 -116 -21 -373 -24 -510 -5
-329 44 -630 147 -824 281 -99 68 -213 184 -273 276 -26 40 -51 74 -54 74 -3
0 -25 -73 -49 -162 -24 -90 -47 -171 -52 -180 -8 -16 -28 -18 -199 -18 -187 0
-190 0 -199 23 -22 50 -824 2513 -864 2652 -24 83 -65 233 -92 334 l-48 185
-19 -65 c-74 -261 -263 -845 -615 -1899 l-409 -1225 -186 -3 -186 -2 -10 37
c-6 21 -247 862 -535 1868 -382 1335 -521 1835 -515 1848 9 15 29 17 204 17
107 0 195 -2 195 -4 0 -2 135 -492 299 -1088 165 -595 322 -1171 350 -1278 61
-237 163 -671 187 -797 10 -51 20 -93 23 -93 3 0 28 87 55 193 108 425 211
752 594 1882 l399 1180 174 0 173 0 358 -1110 c360 -1113 498 -1560 599 -1927
30 -109 56 -198 59 -198 3 0 20 73 39 163 51 241 183 771 351 1407 82 311 206
815 276 1120 82 358 133 559 143 568 8 6 22 10 30 7 9 -2 36 -9 61 -14z"/>
</g>
</svg>
